# xmcd
#
# Track frame offsets: 
#        150
#        40910
#        74396
#        117297
#        156835
#        186225
#        235404
#        278128
#
# Disc length: 3983 seconds
#
# Revision: 0
# Processed by: cddbd v1.5.2PL0 Copyright (c) Steve Scherf et al.
# Submitted via: ExactAudioCopy v1.1
#
DISCID=700f8d08
DTITLE=Antonio Sanchez - Migration
DYEAR=2007
DGENRE=Jazz
TTITLE0=One For Antonio
TTITLE1=Did You Get It?
TTITLE2=Arena (Sand)
TTITLE3=Challenge Within
TTITLE4=Ballade
TTITLE5=Greedy Silence
TTITLE6=Inner Urge
TTITLE7=Solar
EXTD=
EXTT0=
EXTT1=
EXTT2=
EXTT3=
EXTT4=
EXTT5=
EXTT6=
EXTT7=
PLAYORDER=
